<svg width="480" height="248" viewBox="0 0 480 248" fill="none" xmlns="http://www.w3.org/2000/svg">
  <title>AppAffiliate</title>
  <desc>AppAffiliate logo lockup with app frame icon, upward arrow, and wordmark.</desc>
  <defs>
    <linearGradient id="appaffiliate-arrow-gradient" x1="157" y1="24" x2="301" y2="176" gradientUnits="userSpaceOnUse">
      <stop stop-color="#5F85FF"/>
      <stop offset="0.45" stop-color="#2E53FF"/>
      <stop offset="1" stop-color="#183EFF"/>
    </linearGradient>
  </defs>
  <g>
    <path d="M129.286 20C100.967 20 78 42.9674 78 71.2857V144.914C78 173.233 100.967 196.2 129.286 196.2H160.993L147.523 210H129.286C93.3469 210 64 180.653 64 144.714V71.2857C64 35.3469 93.3469 6 129.286 6H254.714C290.653 6 320 35.3469 320 71.2857V144.714C320 180.653 290.653 210 254.714 210H234.331L247.708 196.2H254.714C283.033 196.2 306 173.233 306 144.914V71.2857C306 42.9674 283.033 20 254.714 20H129.286Z" fill="#111827"/>
    <path d="M138.45 45.9756C115.275 45.9756 96.4863 64.7644 96.4863 87.9393V134.444C96.4863 157.619 115.275 176.408 138.45 176.408H173.841L160.556 190.115H138.45C107.706 190.115 82.7793 165.189 82.7793 134.444V87.9393C82.7793 57.1947 107.706 32.2686 138.45 32.2686H245.553C276.297 32.2686 301.223 57.1947 301.223 87.9393V134.444C301.223 165.189 276.297 190.115 245.553 190.115H222.715L236.001 176.408H245.553C268.728 176.408 287.516 157.619 287.516 134.444V87.9393C287.516 64.7644 268.728 45.9756 245.553 45.9756H138.45Z" fill="#1F2937" fill-opacity="0.88"/>
    <path d="M173.237 211.376L248.03 133.661L218.213 136.969L223.179 114.005L286.603 106L279.71 169.787L257.02 164.748L259.684 135.688L184.891 213.403L173.237 211.376Z" fill="url(#appaffiliate-arrow-gradient)"/>
  </g>
  <text x="240" y="243" text-anchor="middle" font-family="Inter, Arial, Helvetica, sans-serif" font-size="76" font-weight="700" letter-spacing="-2.8" fill="#111827">AppAffiliate</text>
</svg>
